<svg xmlns="http://www.w3.org/2000/svg" width="225" height="27" viewBox="0 0 225 27" fill="none"
    class="seed-logo">
    <g clip-path="url(#clip0_2288_69286)">
        <path d="M4.25147 22.0096L0.0722656 23.0842V4.04297L4.25147 5.11762V22.0096Z" fill="white"></path>
        <path d="M24.4411 23.1252L20.2539 24.1999V2.92969L24.4411 3.99638V23.1252Z" fill="white"></path>
        <path d="M10.8843 22.5917L6.70508 23.6664V12.4502L10.8843 13.5248V22.5917Z" fill="white"></path>
        <path d="M13.6094 10.7866L17.7965 9.71191V20.9281L13.6094 19.8534V10.7866Z" fill="white"></path>
        <path
            d="M41.1812 13.4211C41.6429 13.1027 42.017 12.7126 42.2877 12.2669C42.638 11.7017 42.8131 11.0728 42.8131 10.3882C42.8131 9.57624 42.622 8.83593 42.2479 8.18318C41.8738 7.53042 41.3245 6.98912 40.616 6.56722C40.1941 6.32045 39.6687 6.13736 39.0399 6.02591C38.419 5.92243 37.5752 5.8667 36.5244 5.8667H32.584V22.1935H38.5702C40.0827 22.1935 41.3723 21.7397 42.3912 20.8561C43.4181 19.9646 43.9435 18.8421 43.9435 17.5287C43.9435 16.4779 43.6728 15.5784 43.1315 14.8619C42.6698 14.241 42.0091 13.7554 41.1812 13.4132V13.4211ZM39.6687 12.1156C39.1911 12.5216 38.4986 12.7286 37.599 12.7286H35.0676V8.07173H37.4637C38.4508 8.07173 39.1911 8.27074 39.6767 8.66876C40.1543 9.05882 40.3852 9.63197 40.3852 10.4121C40.3852 11.1922 40.1543 11.7176 39.6767 12.1156H39.6687ZM35.0597 14.9734H38.0767C39.1911 14.9734 40.0429 15.1883 40.6001 15.6102C41.1494 16.0242 41.4121 16.6212 41.4121 17.4332C41.4121 18.2451 41.1414 18.866 40.5762 19.28C40.0031 19.7019 39.1354 19.9168 37.997 19.9168H35.0676V14.9654L35.0597 14.9734Z"
            fill="white"></path>
        <path
            d="M60.5775 8.19141H58.2213V10.8581H53.7634L50.8499 17.9031C50.8022 18.0225 50.7066 18.2772 50.5713 18.6832C50.4917 18.922 50.4041 19.2006 50.3007 19.5031C50.2051 19.1767 50.1255 18.8902 50.0459 18.6514C49.8788 18.118 49.8151 17.9668 49.7912 17.9031L46.9255 10.8581H44.3145L48.9713 21.9947L46.9653 26.7391H49.3693L55.451 12.896H58.2292V19.726C58.2292 20.6972 58.4601 21.4057 58.9138 21.8355C59.3675 22.2574 60.1158 22.4803 61.1427 22.4803H62.4323V20.2275H61.2064C60.9756 20.2275 60.8163 20.1798 60.7208 20.0763C60.6253 19.9648 60.5775 19.7738 60.5775 19.5031V12.904H62.4323V10.8661H60.5775V8.19936V8.19141Z"
            fill="white"></path>
        <path
            d="M69.3682 10.5811C67.6408 10.5811 66.2238 11.1462 65.1492 12.2527C64.0745 13.3592 63.5332 14.8239 63.5332 16.6071C63.5332 17.3633 63.6606 18.0957 63.9233 18.7803C64.178 19.4728 64.5601 20.0858 65.0457 20.6111C65.5949 21.2082 66.2716 21.6699 67.0358 21.9963C67.8 22.3147 68.6438 22.4818 69.5274 22.4818C70.5941 22.4818 71.5732 22.2828 72.425 21.8848C73.2767 21.4868 74.0728 20.8659 74.7892 20.03L74.9245 19.8708L73.213 18.4937L73.0857 18.6449C72.6001 19.2022 72.0588 19.632 71.4697 19.9186C70.8886 20.2052 70.2597 20.3485 69.5831 20.3485C68.5403 20.3485 67.6646 20.0539 66.988 19.4648C66.3591 18.9235 66.0009 18.2389 65.9054 17.3872H75.2907V17.0369C75.2907 15.1185 74.7414 13.5503 73.6588 12.3801C72.5682 11.202 71.1274 10.597 69.3602 10.597L69.3682 10.5811ZM67.0039 13.5344C67.6487 12.9851 68.4368 12.7065 69.3443 12.7065C70.2518 12.7065 71.008 12.9771 71.6289 13.5184C72.1941 14.012 72.5523 14.6488 72.7036 15.413H65.9134C66.0487 14.6647 66.4149 14.0279 67.0039 13.5344Z"
            fill="white"></path>
        <path
            d="M88.3366 7.95315C86.7525 6.576 84.4121 5.87549 81.3952 5.87549H77.8926V22.2022H81.3952C84.4121 22.2022 86.7525 21.5017 88.3366 20.1246C89.9287 18.7395 90.7406 16.6937 90.7406 14.0428C90.7406 11.392 89.9287 9.33826 88.3366 7.95315ZM81.7056 19.9176H80.3842V8.16012H81.7056C83.8708 8.16012 85.5107 8.65367 86.6012 9.64076C87.6839 10.6199 88.2252 12.0926 88.2252 14.0428C88.2252 15.9931 87.6759 17.4579 86.6012 18.437C85.5186 19.4241 83.8708 19.9176 81.7056 19.9176Z"
            fill="white"></path>
        <path
            d="M101.413 12.2899C100.976 11.8282 100.474 11.4541 99.9169 11.1754C99.1925 10.8172 98.3885 10.6421 97.5208 10.6421C95.8014 10.6421 94.4004 11.1834 93.3496 12.2581C92.2988 13.3327 91.7734 14.7576 91.7734 16.493C91.7734 17.297 91.9088 18.0453 92.1715 18.7298C92.4341 19.4144 92.8401 20.0433 93.3655 20.5926C93.9148 21.1578 94.5596 21.5956 95.268 21.8981C95.9765 22.1926 96.7328 22.3439 97.5208 22.3439C98.4044 22.3439 99.2005 22.1767 99.8851 21.8424C100.403 21.5876 100.872 21.2374 101.27 20.7916V22.2085H103.611V10.865H101.413V12.2979V12.2899ZM100.363 13.8103C101.031 14.5108 101.374 15.4183 101.374 16.5089C101.374 17.5995 101.031 18.5149 100.363 19.2154C99.694 19.908 98.8263 20.2582 97.7835 20.2582C96.7407 20.2582 95.873 19.908 95.2044 19.2154C94.5357 18.5229 94.1934 17.6154 94.1934 16.5089C94.1934 15.4024 94.5357 14.5029 95.2044 13.8024C95.873 13.1098 96.7407 12.7596 97.7835 12.7596C98.8263 12.7596 99.694 13.1098 100.363 13.8103Z"
            fill="white"></path>
        <path
            d="M110.812 10.6421C110.176 10.6421 109.571 10.7695 109.013 11.0242C108.591 11.2152 108.178 11.4859 107.78 11.8361V10.857H105.455V22.2006H107.78V15.9358C107.78 14.8611 108.01 14.0491 108.456 13.5238C108.894 13.0063 109.579 12.7436 110.47 12.7436C111.258 12.7436 111.815 12.9745 112.174 13.4601C112.54 13.9536 112.731 14.7576 112.731 15.8561V22.2085H115.071V15.6651C115.071 14.1208 114.689 12.8949 113.933 12.0033C113.169 11.1038 112.118 10.6501 110.804 10.6501L110.812 10.6421Z"
            fill="white"></path>
        <path
            d="M124.454 19.2082C124.16 19.5823 123.809 19.8689 123.395 20.052C122.981 20.243 122.496 20.3385 121.947 20.3385C120.936 20.3385 120.132 19.9962 119.503 19.2878C118.874 18.5872 118.555 17.6559 118.555 16.5335C118.555 15.4111 118.882 14.4797 119.519 13.7633C120.156 13.0468 120.952 12.6966 121.955 12.6966C122.464 12.6966 122.926 12.7841 123.324 12.9513C123.714 13.1185 124.072 13.3812 124.382 13.7394L124.534 13.9145L126.054 12.1632L125.903 12.0279C125.37 11.5423 124.773 11.1761 124.12 10.9373C123.475 10.6985 122.743 10.5791 121.947 10.5791C121.111 10.5791 120.331 10.7224 119.63 10.993C118.93 11.2717 118.301 11.6856 117.783 12.2269C117.226 12.7841 116.804 13.4369 116.526 14.1692C116.239 14.8936 116.096 15.6897 116.096 16.5335C116.096 17.3773 116.239 18.1733 116.526 18.8897C116.812 19.6141 117.234 20.2669 117.783 20.8241C118.301 21.3575 118.93 21.7714 119.638 22.05C120.347 22.3286 121.119 22.4719 121.955 22.4719C122.79 22.4719 123.499 22.3446 124.152 22.0978C124.804 21.851 125.425 21.453 126.014 20.9117L126.166 20.7764L124.621 19.0012L124.47 19.2002L124.454 19.2082Z"
            fill="white"></path>
        <path
            d="M138.867 17.021C138.867 15.1026 138.318 13.5344 137.235 12.3642C136.145 11.186 134.704 10.5811 132.937 10.5811C131.169 10.5811 129.792 11.1462 128.718 12.2527C127.643 13.3592 127.102 14.8239 127.102 16.6071C127.102 17.3633 127.229 18.0957 127.492 18.7803C127.746 19.4728 128.128 20.0858 128.614 20.6111C129.163 21.2082 129.84 21.6699 130.604 21.9963C131.368 22.3147 132.212 22.4818 133.096 22.4818C134.162 22.4818 135.142 22.2828 135.993 21.8848C136.845 21.4868 137.641 20.8659 138.358 20.03L138.493 19.8708L136.781 18.4937L136.654 18.6449C136.168 19.2022 135.619 19.632 135.038 19.9186C134.457 20.2052 133.828 20.3485 133.151 20.3485C132.109 20.3485 131.233 20.0539 130.556 19.4648C129.927 18.9156 129.569 18.2389 129.474 17.3872H138.859V17.0369L138.867 17.021ZM130.572 13.5344C131.217 12.9851 132.005 12.7065 132.913 12.7065C133.82 12.7065 134.576 12.9771 135.197 13.5184C135.762 14.012 136.121 14.6488 136.272 15.413H129.482C129.617 14.6647 129.983 14.0279 130.572 13.5344Z"
            fill="white"></path>
        <path d="M151.063 5.01465H150.267V23.5703H151.063V5.01465Z" fill="white"></path>
        <path
            d="M167.356 22.5031C166.067 21.8822 165 20.9986 164.148 19.8523L166.226 18.117C166.935 18.9449 167.691 19.5896 168.487 20.0513C169.283 20.5131 170.302 20.7359 171.552 20.7359C172.73 20.7359 173.741 20.5051 174.6 20.0354C175.46 19.5658 175.882 18.9369 175.882 18.1409C175.882 17.3448 175.468 16.7557 174.648 16.31C173.828 15.8642 172.658 15.5219 171.13 15.2592C168.964 14.9169 167.333 14.3676 166.226 13.6114C165.12 12.8552 164.562 11.7168 164.562 10.1725C164.562 9.05009 164.889 8.07096 165.534 7.24308C166.178 6.4152 167.046 5.77837 168.113 5.33259C169.179 4.88681 170.342 4.67188 171.591 4.67188C173.064 4.67188 174.401 4.94253 175.603 5.4918C176.805 6.03311 177.785 6.86099 178.549 7.96748L176.471 9.57548C175.882 8.83516 175.197 8.26201 174.417 7.86399C173.637 7.46597 172.714 7.26696 171.639 7.26696C170.429 7.26696 169.402 7.5217 168.551 8.0232C167.699 8.52471 167.277 9.19338 167.277 10.0213C167.277 10.7855 167.651 11.3506 168.391 11.7248C169.132 12.0989 170.366 12.4253 172.077 12.6959C173.948 13.0064 175.508 13.6034 176.758 14.4711C178.015 15.3468 178.636 16.5329 178.636 18.0374C178.636 19.112 178.302 20.0593 177.641 20.8792C176.973 21.6992 176.097 22.336 175.006 22.7738C173.916 23.2116 172.746 23.4345 171.504 23.4345C170.015 23.4345 168.63 23.1241 167.341 22.5031H167.356Z"
            fill="white"></path>
        <path
            d="M183.597 22.5678C182.53 21.923 181.695 21.0394 181.082 19.917C180.469 18.7946 180.158 17.5607 180.158 16.1915C180.158 14.8224 180.469 13.6522 181.09 12.5616C181.71 11.471 182.562 10.6113 183.629 9.98244C184.704 9.35357 185.89 9.03516 187.187 9.03516C188.62 9.03516 189.846 9.32969 190.857 9.92672C191.868 10.5238 192.64 11.3516 193.165 12.4024C193.691 13.4611 193.954 14.6711 193.954 16.0323C193.954 16.3428 193.922 16.8284 193.85 17.4891L182.825 17.513C183 18.2374 183.311 18.8662 183.772 19.3916C184.234 19.917 184.759 20.323 185.364 20.6016C185.969 20.8802 186.566 21.0155 187.155 21.0155C188.055 21.0155 188.867 20.8484 189.583 20.5061C190.3 20.1717 190.881 19.726 191.335 19.1687L193.388 20.4902C192.783 21.5091 191.94 22.2733 190.857 22.7748C189.774 23.2763 188.533 23.531 187.132 23.531C185.834 23.531 184.656 23.2046 183.589 22.5599L183.597 22.5678ZM189.981 12.5616C189.225 11.8691 188.31 11.5268 187.219 11.5268C186.527 11.5268 185.866 11.678 185.237 11.9805C184.608 12.283 184.067 12.7129 183.629 13.278C183.191 13.8432 182.92 14.488 182.833 15.2124H191.398C191.207 14.1378 190.738 13.2542 189.981 12.5616Z"
            fill="white"></path>
        <path
            d="M198.439 22.5678C197.372 21.923 196.536 21.0394 195.923 19.917C195.31 18.7946 195 17.5607 195 16.1915C195 14.8224 195.31 13.6522 195.931 12.5616C196.552 11.471 197.404 10.6113 198.471 9.98244C199.545 9.35357 200.731 9.03516 202.029 9.03516C203.462 9.03516 204.688 9.32969 205.699 9.92672C206.71 10.5238 207.482 11.3516 208.007 12.4024C208.533 13.4611 208.795 14.6711 208.795 16.0323C208.795 16.3428 208.763 16.8284 208.692 17.4891L197.667 17.513C197.842 18.2374 198.152 18.8662 198.614 19.3916C199.076 19.917 199.601 20.323 200.206 20.6016C200.811 20.8802 201.408 21.0155 201.997 21.0155C202.897 21.0155 203.709 20.8484 204.425 20.5061C205.142 20.1717 205.723 19.726 206.176 19.1687L208.23 20.4902C207.625 21.5091 206.781 22.2733 205.699 22.7748C204.616 23.2763 203.374 23.531 201.973 23.531C200.676 23.531 199.498 23.2046 198.431 22.5599L198.439 22.5678ZM204.823 12.5616C204.067 11.8691 203.151 11.5268 202.061 11.5268C201.368 11.5268 200.708 11.678 200.079 11.9805C199.45 12.283 198.909 12.7129 198.471 13.278C198.033 13.8432 197.762 14.488 197.675 15.2124H206.24C206.049 14.1378 205.579 13.2542 204.823 12.5616Z"
            fill="white"></path>
        <path
            d="M224.374 4.62417V23.156H221.755V20.9509C221.166 21.7151 220.465 22.3201 219.637 22.7818C218.809 23.2435 217.87 23.4664 216.795 23.4664C215.514 23.4664 214.343 23.148 213.277 22.5032C212.21 21.8664 211.374 20.9828 210.761 19.8683C210.148 18.7539 209.838 17.52 209.838 16.1667C209.838 14.8135 210.14 13.6513 210.745 12.5607C211.35 11.4701 212.178 10.6024 213.221 9.96559C214.272 9.32876 215.434 9.00239 216.708 9.00239C217.814 9.00239 218.785 9.23324 219.613 9.68698C220.441 10.1487 221.15 10.7537 221.739 11.5179V4.61621H224.358L224.374 4.62417ZM219.589 20.3778C220.29 19.932 220.839 19.335 221.237 18.6026C221.635 17.8703 221.834 17.0742 221.834 16.2304C221.834 15.3866 221.635 14.6145 221.237 13.8662C220.839 13.1259 220.29 12.5288 219.589 12.0751C218.889 11.6293 218.109 11.3985 217.241 11.3985C216.31 11.3985 215.482 11.6214 214.765 12.0751C214.049 12.5288 213.492 13.1099 213.094 13.8423C212.696 14.5667 212.497 15.3389 212.497 16.1508C212.497 17.0185 212.696 17.8225 213.094 18.5787C213.492 19.335 214.049 19.932 214.765 20.3857C215.482 20.8315 216.31 21.0624 217.241 21.0624C218.109 21.0624 218.889 20.8395 219.589 20.3857V20.3778Z"
            fill="white"></path>
    </g>
    <defs>
        <clipPath id="clip0_2288_69286">
            <rect width="225" height="26.5625" fill="white"></rect>
        </clipPath>
    </defs>
</svg>
